<svg width="376.9249633789062px" height="120.8px" xmlns="http://www.w3.org/2000/svg" viewBox="61.537518310546886 14.600000000000001 376.9249633789062 120.8" style="background:#596886" preserveAspectRatio="xMidYMid"><defs><filter id="editing-hover" x="-100%" y="-100%" width="300%" height="300%"><feFlood flood-color="#052b4a" result="flood"></feFlood><feComposite operator="in" in2="SourceAlpha" in="flood" result="shadow"></feComposite><feOffset dx="-4" dy="-4" in="SourceGraphic" result="offset-1"></feOffset><feOffset dx="4" dy="4" in="shadow" result="offset-2"></feOffset><feMerge><feMergeNode in="offset-2"></feMergeNode><feMergeNode in="offset-1"></feMergeNode></feMerge></filter></defs><g filter="url(#editing-hover)"><g transform="translate(118.12500059604645, 97.39999961853027)"><path d="M34.50-13.25L34.50-13.25L34.50-13.25Q36.16-12.03 36.16-9.44L36.16-9.44L36.16-9.44Q36.16-6.85 35.04-5.02L35.04-5.02L35.04-5.02Q33.92-3.20 31.74-1.79L31.74-1.79L31.74-1.79Q27.07 1.22 18.91 1.22L18.91 1.22L18.91 1.22Q10.75 1.22 6.30-3.04L6.30-3.04L6.30-3.04Q1.86-7.30 1.86-14.85L1.86-14.85L1.86-14.85Q1.86-25.54 7.42-33.66L7.42-33.66L7.42-33.66Q11.65-39.68 19.20-42.24L19.20-42.24L19.20-42.24Q23.10-43.52 26.94-43.52L26.94-43.52L26.94-43.52Q30.78-43.52 33.15-43.01L33.15-43.01L33.15-43.01Q35.52-42.50 37.31-41.47L37.31-41.47L37.31-41.47Q41.22-39.23 41.22-35.65L41.22-35.65L41.22-35.65Q41.22-32.38 38.14-29.95L38.14-29.95L38.14-29.95Q35.33-27.78 33.02-27.78L33.02-27.78L33.02-27.78Q30.72-27.78 29.76-28.10L29.76-28.10L29.76-28.10Q30.02-30.40 30.02-31.90L30.02-31.90L30.02-31.90Q30.02-33.41 29.95-34.50L29.95-34.50L29.95-34.50Q29.89-35.58 29.57-36.61L29.57-36.61L29.57-36.61Q28.93-38.98 26.98-38.98L26.98-38.98L26.98-38.98Q25.02-38.98 23.07-37.15L23.07-37.15L23.07-37.15Q21.12-35.33 19.46-32.26L19.46-32.26L19.46-32.26Q15.68-25.28 15.68-17.02L15.68-17.02L15.68-17.02Q15.68-13.06 17.92-10.78L17.92-10.78L17.92-10.78Q20.16-8.51 24.96-8.51L24.96-8.51L24.96-8.51Q28.54-8.51 31.94-10.88L31.94-10.88L31.94-10.88Q33.41-11.90 34.50-13.25ZM55.42 1.28L55.42 1.28L55.42 1.28Q41.34 1.28 41.34-11.97L41.34-11.97L41.34-11.97Q41.34-21.38 46.53-27.46L46.53-27.46L46.53-27.46Q52.03-33.92 61.57-33.92L61.57-33.92L61.57-33.92Q68.48-33.92 72-30.72L72-30.72L72-30.72Q75.52-27.52 75.52-20.80L75.52-20.80L75.52-20.80Q75.52-10.56 70.02-4.61L70.02-4.61L70.02-4.61Q64.64 1.28 55.42 1.28ZM57.09-26.56L57.09-26.56L57.09-26.56Q56.32-24.83 55.71-22.24L55.71-22.24L55.71-22.24Q55.10-19.65 54.34-15.55L54.34-15.55L54.34-15.55Q53.57-11.46 53.57-6.40L53.57-6.40L53.57-6.40Q53.57-4.74 54.11-3.65L54.11-3.65L54.11-3.65Q54.66-2.56 56.13-2.56L56.13-2.56L56.13-2.56Q57.60-2.56 58.53-3.26L58.53-3.26L58.53-3.26Q59.46-3.97 60.16-5.63L60.16-5.63L60.16-5.63Q61.44-8.58 62.46-14.05L62.46-14.05L62.46-14.05Q63.49-19.52 63.58-21.89L63.58-21.89L63.58-21.89Q63.68-24.26 63.68-26.02L63.68-26.02L63.68-26.02Q63.68-27.78 63.17-28.93L63.17-28.93L63.17-28.93Q62.66-30.08 61.22-30.08L61.22-30.08L61.22-30.08Q59.78-30.08 58.82-29.18L58.82-29.18L58.82-29.18Q57.86-28.29 57.09-26.56ZM106.37 1.28L106.37 1.28L106.37 1.28Q98.62 1.28 98.62-4.74L98.62-4.74L98.62-4.74Q98.69-6.40 99.20-9.22L99.20-9.22L100.35-15.10L100.35-15.10Q102.08-23.42 102.08-25.28L102.08-25.28L102.08-25.28Q102.08-28.99 99.90-28.99L99.90-28.99L99.90-28.99Q96.26-28.99 94.34-19.46L94.34-19.46L90.56 0L77.70 1.28L84.35-32.70L94.85-33.92L93.82-27.65L93.82-27.65Q96.83-33.92 106.05-33.92L106.05-33.92L106.05-33.92Q110.53-33.92 112.42-32.03L112.42-32.03L112.42-32.03Q114.30-30.14 114.30-25.92L114.30-25.92L114.30-25.92Q114.30-21.95 112.26-12.67L112.26-12.67L112.26-12.67Q111.30-8.51 111.30-6.94L111.30-6.94L111.30-6.94Q111.30-5.38 112.16-4.48L112.16-4.48L112.16-4.48Q113.02-3.58 114.30-3.46L114.30-3.46L114.30-3.46Q113.66-1.28 111.46 0L111.46 0L111.46 0Q109.25 1.28 106.37 1.28ZM142.66-31.55L142.66-31.55L142.66-31.55Q144.77-33.92 148.42-33.92L148.42-33.92L148.42-33.92Q150.66-33.92 152.38-32.70L152.38-32.70L152.38-32.70Q154.11-31.49 154.11-29.22L154.11-29.22L154.11-29.22Q154.11-26.94 153.41-24.51L153.41-24.51L153.41-24.51Q152.70-22.08 151.62-19.58L151.62-19.58L151.62-19.58Q149.44-14.72 146.43-10.69L146.43-10.69L146.43-10.69Q142.21-4.86 138.14-1.79L138.14-1.79L138.14-1.79Q134.08 1.28 129.66 1.28L129.66 1.28L129.66 1.28Q126.08 1.28 123.90 0.45L123.90 0.45L123.90 0.45Q123.52-12.99 123.04-17.79L123.04-17.79L123.04-17.79Q122.56-22.59 122.18-25.22L122.18-25.22L122.18-25.22Q121.54-30.34 119.62-31.55L119.62-31.55L119.62-31.55Q121.09-32.83 122.53-33.38L122.53-33.38L122.53-33.38Q123.97-33.92 126.94-33.92L126.94-33.92L126.94-33.92Q129.92-33.92 132.03-31.58L132.03-31.58L132.03-31.58Q134.14-29.25 134.56-25.12L134.56-25.12L134.56-25.12Q134.98-20.99 134.98-16L134.98-16L134.98-16Q134.98-11.01 134.59-4.99L134.59-4.99L134.59-4.99Q136.58-6.40 138.69-10.69L138.69-10.69L138.69-10.69Q141.57-16.64 142.59-23.81L142.59-23.81L142.59-23.81Q142.91-25.98 142.91-28.29L142.91-28.29L142.91-28.29Q142.91-30.59 142.66-31.55ZM181.76-10.82L181.76-10.82L181.76-10.82Q183.36-9.73 183.36-7.33L183.36-7.33L183.36-7.33Q183.36-4.93 182.14-3.39L182.14-3.39L182.14-3.39Q180.93-1.86 178.94-0.83L178.94-0.83L178.94-0.83Q174.85 1.28 170.43 1.28L170.43 1.28L170.43 1.28Q166.02 1.28 163.42 0.32L163.42 0.32L163.42 0.32Q160.83-0.64 159.10-2.43L159.10-2.43L159.10-2.43Q155.71-5.82 155.71-12.03L155.71-12.03L155.71-12.03Q155.71-21.70 160.96-27.58L160.96-27.58L160.96-27.58Q166.59-33.92 176.38-33.92L176.38-33.92L176.38-33.92Q182.46-33.92 185.47-31.36L185.47-31.36L185.47-31.36Q187.71-29.44 187.71-26.30L187.71-26.30L187.71-26.30Q187.71-15.04 168.26-15.04L168.26-15.04L168.26-15.04Q168-13.38 168-11.97L168-11.97L168-11.97Q168-9.02 169.31-7.90L169.31-7.90L169.31-7.90Q170.62-6.78 173.06-6.78L173.06-6.78L173.06-6.78Q175.49-6.78 178.08-7.90L178.08-7.90L178.08-7.90Q180.67-9.02 181.76-10.82ZM168.70-17.79L168.70-17.79L168.70-17.79Q173.25-17.79 175.87-20.61L175.87-20.61L175.87-20.61Q178.50-23.30 178.50-27.58L178.50-27.58L178.50-27.58Q178.50-29.06 177.95-29.86L177.95-29.86L177.95-29.86Q177.41-30.66 176.32-30.66L176.32-30.66L176.32-30.66Q175.23-30.66 174.30-30.24L174.30-30.24L174.30-30.24Q173.38-29.82 172.42-28.42L172.42-28.42L172.42-28.42Q170.05-25.22 168.70-17.79ZM216.96 1.28L216.96 1.28L216.96 1.28Q209.22 1.28 209.22-4.74L209.22-4.74L209.22-4.74Q209.28-6.40 209.79-9.22L209.79-9.22L210.94-15.10L210.94-15.10Q212.67-23.42 212.67-25.28L212.67-25.28L212.67-25.28Q212.67-28.99 210.50-28.99L210.50-28.99L210.50-28.99Q206.85-28.99 204.93-19.46L204.93-19.46L201.15 0L188.29 1.28L194.94-32.70L205.44-33.92L204.42-27.65L204.42-27.65Q207.42-33.92 216.64-33.92L216.64-33.92L216.64-33.92Q221.12-33.92 223.01-32.03L223.01-32.03L223.01-32.03Q224.90-30.14 224.90-25.92L224.90-25.92L224.90-25.92Q224.90-21.95 222.85-12.67L222.85-12.67L222.85-12.67Q221.89-8.51 221.89-6.94L221.89-6.94L221.89-6.94Q221.89-5.38 222.75-4.48L222.75-4.48L222.75-4.48Q223.62-3.58 224.90-3.46L224.90-3.46L224.90-3.46Q224.26-1.28 222.05 0L222.05 0L222.05 0Q219.84 1.28 216.96 1.28ZM255.94-10.82L255.94-10.82L255.94-10.82Q257.54-9.73 257.54-7.33L257.54-7.33L257.54-7.33Q257.54-4.93 256.32-3.39L256.32-3.39L256.32-3.39Q255.10-1.86 253.12-0.83L253.12-0.83L253.12-0.83Q249.02 1.28 244.61 1.28L244.61 1.28L244.61 1.28Q240.19 1.28 237.60 0.32L237.60 0.32L237.60 0.32Q235.01-0.64 233.28-2.43L233.28-2.43L233.28-2.43Q229.89-5.82 229.89-12.03L229.89-12.03L229.89-12.03Q229.89-21.70 235.14-27.58L235.14-27.58L235.14-27.58Q240.77-33.92 250.56-33.92L250.56-33.92L250.56-33.92Q256.64-33.92 259.65-31.36L259.65-31.36L259.65-31.36Q261.89-29.44 261.89-26.30L261.89-26.30L261.89-26.30Q261.89-15.04 242.43-15.04L242.43-15.04L242.43-15.04Q242.18-13.38 242.18-11.97L242.18-11.97L242.18-11.97Q242.18-9.02 243.49-7.90L243.49-7.90L243.49-7.90Q244.80-6.78 247.23-6.78L247.23-6.78L247.23-6.78Q249.66-6.78 252.26-7.90L252.26-7.90L252.26-7.90Q254.85-9.02 255.94-10.82ZM242.88-17.79L242.88-17.79L242.88-17.79Q247.42-17.79 250.05-20.61L250.05-20.61L250.05-20.61Q252.67-23.30 252.67-27.58L252.67-27.58L252.67-27.58Q252.67-29.06 252.13-29.86L252.13-29.86L252.13-29.86Q251.58-30.66 250.50-30.66L250.50-30.66L250.50-30.66Q249.41-30.66 248.48-30.24L248.48-30.24L248.48-30.24Q247.55-29.82 246.59-28.42L246.59-28.42L246.59-28.42Q244.22-25.22 242.88-17.79Z" fill="#ffd5af"></path></g></g><style>text {
  font-size: 64px;
  font-family: Arial Black;
  dominant-baseline: central;
  text-anchor: middle;
}</style></svg>